<svg width="1200" height="150" xmlns="http://www.w3.org/2000/svg"><path d="M19.8 90.7L66 22.5l-7.9 44.4 49.4-23.8C101.7 21.1 79.4.5 52.5 1 22.4 1.5 1.5 24.8.1 49.9c-.9 15.6 6.6 29.5 19.7 40.8zm68.7-31.4l-46.2 68.2 7.9-44.4L.8 106.9c5.8 22 28.1 42.6 55 42.1 30.1-.5 51-23.8 52.4-48.9.9-15.6-6.7-29.5-19.7-40.8zM365 128V82.6h-42.7V128h-19.4V22h19.4v43.6H365V22h19.2v106H365zm133.5-52.7c0 29.2-15.7 54.5-48.6 54.5-32.9 0-48.8-25.3-48.8-54.5 0-29.7 19.8-55.1 48.8-55.1 28.9 0 48.6 25.4 48.6 55.1zm-78-.3c0 20.8 10.1 36.7 29.4 36.7 19.2 0 29.4-15.6 29.4-36.6 0-19.7-10.4-37.4-29.4-37.4-18.9-.1-29.4 17.8-29.4 37.3zM556 22c21.5 0 36.2 12 36.2 34.1 0 22.6-16.7 34.4-38.2 34.4h-19.4V128h-19.4V22H556zm-21.3 50.6h16.8c14.4 0 21.5-6.4 21.5-16.8 0-9.7-4.5-16-18.9-16h-19.4v32.8zM1161.5 22c21 0 35.1 11.4 35.1 33 0 20-13.2 28.5-27.1 31.2L1200 128h-24.2l-28.6-41.3h-10.8V128H1117V22h44.5zm-25.1 47.5h20.6c13 0 20.4-5 20.4-15.1 0-9.7-5.3-14.7-18.5-14.7h-22.6l.1 29.8zM652.5 22c21 0 35.1 11.4 35.1 33 0 20-13.2 28.5-27.1 31.2L691 128h-24.2l-28.6-41.4h-10.8V128H608V22h44.5zm-25.1 47.5H648c13 0 20.4-5 20.4-15.1 0-9.7-5.3-14.7-18.5-14.7h-22.6v29.8h.1zm158 19.4c0 23.5-13.3 40.9-41.2 40.9-27.9 0-41.8-17.4-41.8-40.9V22h19.4v65.9c0 14.4 6.8 23.9 22.4 23.9 15.6 0 22-9.5 22-23.9V22h19.2v66.9zm79.9 39.1l-39.8-88.1h-.3V128h-19.4V22h31.8l40 88h.3V22h19.2v106h-31.8zm111.6 0l-39.8-88.1h-.3V128h-19.4V22h31.8l40 88h.3V22h19.2v106h-31.8zm71.6-88.3v26.7h45V83h-45v27.1h48.2V128h-67.5V22h67.5v17.7h-48.2zM253.3 66.5c-14.8-4.6-21.7-9.4-22.1-16.3 0-6.2 5.7-12.8 17-12.8 10.1 0 19.5 7.2 25.9 16.3h.9l7.9-16.5c-6.2-7.5-17.6-17-35.1-17-20.1 0-35.9 13.6-35.1 30.1.8 17.1 12.9 25.8 31.3 31.7 14.9 4.8 23.4 8.1 22 18.6-1.5 11.4-26 21.7-44.7-6.6h-.9l-8.7 18.2c9.3 11.1 23 17.5 37.4 17.6 19.2 0 34.7-12.1 36.2-29.4 1.8-18-13.3-28.1-32-33.9z" fill="#000" fill-rule="nonzero"/></svg>